<?xml version="1.0" encoding="UTF-8" standalone="no"?>
<svg width="250px" height="250px" viewBox="0 0 250 250" version="1.1" xmlns="http://www.w3.org/2000/svg" xmlns:xlink="http://www.w3.org/1999/xlink">
    <!-- Generator: Sketch 3.8.1 (29687) - http://www.bohemiancoding.com/sketch -->
    <title>avatar-dummy</title>
    <desc>Created with Sketch.</desc>
    <defs></defs>
    <g id="Icons" stroke="none" stroke-width="1" fill="none" fill-rule="evenodd">
        <g id="avatar-dummy">
            <rect id="Rectangle-4" fill="#D8D8D8" x="0" y="0" width="250" height="250"></rect>
            <g id="Group-2" opacity="0.5" transform="translate(45.000000, 58.000000)" fill="#5A5A5A">
                <path d="M80,97.4558824 C106.793932,97.4558824 128.514706,75.7351087 128.514706,48.9411765 C128.514706,22.1472443 106.793932,0.426470588 80,0.426470588 C53.2060678,0.426470588 31.4852941,22.1472443 31.4852941,48.9411765 C31.4852941,75.7351087 53.2060678,97.4558824 80,97.4558824 Z" id="Oval-1"></path>
                <path d="M43.526559,94.2554497 C41.6464024,95.1035714 39.6896758,95.9990569 37.6470588,96.9411765 C0,114.305191 0,192 0,192 L159.058824,192 C159.058824,192 159.058823,115.827872 121.411765,96.9411765 C119.4278,95.9458653 117.524864,95.007235 115.694417,94.1246168 C105.815333,102.125032 93.2320601,106.917647 79.5294118,106.917647 C65.9016219,106.917647 53.3810101,102.177254 43.526559,94.2554497 Z" id="Combined-Shape"></path>
            </g>
        </g>
    </g>
</svg>