<?xml version="1.0" encoding="UTF-8" standalone="no"?>
<!DOCTYPE svg PUBLIC "-//W3C//DTD SVG 1.1//EN" "http://www.w3.org/Graphics/SVG/1.1/DTD/svg11.dtd">
<svg version="1.1" xmlns="http://www.w3.org/2000/svg" xmlns:xlink="http://www.w3.org/1999/xlink" preserveAspectRatio="xMidYMid meet" viewBox="0 0 560 480" width="560" height="480"><defs><path d="M455.03 355.69C416.37 355.69 394.89 355.69 390.59 355.69C374.15 382.36 352.25 404.93 326.49 421.81C335.06 421.81 377.91 421.81 455.03 421.81L455.03 471.38L551.25 388.76L455.03 306.12L455.03 355.69Z" id="a2m1mvxjj2"></path><path d="M139.66 322.65C119.01 301.62 106.09 272.39 106.09 240.01C106.09 201.59 124.34 167.73 152.09 146.68C147.1 142.35 107.23 107.73 102.25 103.4C65.78 136.72 42.64 185.5 42.64 240.01C42.64 269.87 50 297.79 62.25 322.65C77.73 322.65 124.18 322.65 139.66 322.65Z" id="d16IpRpfa1"></path><path d="M391.58 240.01C391.58 145.18 321.89 67.4 232.97 59.04C232.97 55.67 232.97 38.87 232.97 8.62L137.81 91.26L232.97 173.88C232.97 145.14 232.97 129.18 232.97 125.98C286.64 134.09 328.14 181.88 328.14 240.01C328.14 303.79 278.33 355.7 217.11 355.7C203.3 355.7 134.21 355.7 9.86 355.7L9.86 421.81C134.98 421.81 204.49 421.81 218.39 421.81C218.36 421.79 218.35 421.77 218.32 421.75C314.11 421.07 391.58 339.99 391.58 240.01Z" id="d1hq7KtrHf"></path></defs><g><g><g><g><filter id="shadow4859212" x="218.49" y="198.12" width="443.76" height="384.26" filterUnits="userSpaceOnUse" primitiveUnits="userSpaceOnUse"><feFlood></feFlood><feComposite in2="SourceAlpha" operator="in"></feComposite><feGaussianBlur stdDeviation="7.07"></feGaussianBlur><feOffset dx="3" dy="3" result="afterOffset"></feOffset><feFlood flood-color="#000000" flood-opacity="0.3"></feFlood><feComposite in2="afterOffset" operator="in"></feComposite><feMorphology operator="dilate" radius="0"></feMorphology><feComposite in2="SourceAlpha" operator="out"></feComposite></filter><path d="M455.03 355.69C416.37 355.69 394.89 355.69 390.59 355.69C374.15 382.36 352.25 404.93 326.49 421.81C335.06 421.81 377.91 421.81 455.03 421.81L455.03 471.38L551.25 388.76L455.03 306.12L455.03 355.69Z" id="eH3y3hpAe" fill="white" fill-opacity="1" filter="url(#shadow4859212)"></path></g><use xlink:href="#a2m1mvxjj2" opacity="1" fill="#3f51b5" fill-opacity="1"></use><g><use xlink:href="#a2m1mvxjj2" opacity="1" fill-opacity="0" stroke="#000000" stroke-width="1" stroke-opacity="0"></use></g></g><g><g><filter id="shadow15708076" x="-65.36" y="-4.6" width="328.44" height="438.24" filterUnits="userSpaceOnUse" primitiveUnits="userSpaceOnUse"><feFlood></feFlood><feComposite in2="SourceAlpha" operator="in"></feComposite><feGaussianBlur stdDeviation="7.07"></feGaussianBlur><feOffset dx="3" dy="3" result="afterOffset"></feOffset><feFlood flood-color="#000000" flood-opacity="0.3"></feFlood><feComposite in2="afterOffset" operator="in"></feComposite><feMorphology operator="dilate" radius="0"></feMorphology><feComposite in2="SourceAlpha" operator="out"></feComposite></filter><path d="M139.66 322.65C119.01 301.62 106.09 272.39 106.09 240.01C106.09 201.59 124.34 167.73 152.09 146.68C147.1 142.35 107.23 107.73 102.25 103.4C65.78 136.72 42.64 185.5 42.64 240.01C42.64 269.87 50 297.79 62.25 322.65C77.73 322.65 124.18 322.65 139.66 322.65Z" id="e3ouJXkB9b" fill="white" fill-opacity="1" filter="url(#shadow15708076)"></path></g><use xlink:href="#d16IpRpfa1" opacity="1" fill="#3f51b5" fill-opacity="1"></use><g><use xlink:href="#d16IpRpfa1" opacity="1" fill-opacity="0" stroke="#000000" stroke-width="1" stroke-opacity="0"></use></g></g><g><g><filter id="shadow12517538" x="-98.14" y="-99.38" width="600.72" height="632.19" filterUnits="userSpaceOnUse" primitiveUnits="userSpaceOnUse"><feFlood></feFlood><feComposite in2="SourceAlpha" operator="in"></feComposite><feGaussianBlur stdDeviation="7.07"></feGaussianBlur><feOffset dx="3" dy="3" result="afterOffset"></feOffset><feFlood flood-color="#000000" flood-opacity="0.3"></feFlood><feComposite in2="afterOffset" operator="in"></feComposite><feMorphology operator="dilate" radius="0"></feMorphology><feComposite in2="SourceAlpha" operator="out"></feComposite></filter><path d="M391.58 240.01C391.58 145.18 321.89 67.4 232.97 59.04C232.97 55.67 232.97 38.87 232.97 8.62L137.81 91.26L232.97 173.88C232.97 145.14 232.97 129.18 232.97 125.98C286.64 134.09 328.14 181.88 328.14 240.01C328.14 303.79 278.33 355.7 217.11 355.7C203.3 355.7 134.21 355.7 9.86 355.7L9.86 421.81C134.98 421.81 204.49 421.81 218.39 421.81C218.36 421.79 218.35 421.77 218.32 421.75C314.11 421.07 391.58 339.99 391.58 240.01Z" id="ejWhmtAj2" fill="white" fill-opacity="1" filter="url(#shadow12517538)"></path></g><use xlink:href="#d1hq7KtrHf" opacity="1" fill="#3f51b5" fill-opacity="1"></use><g><use xlink:href="#d1hq7KtrHf" opacity="1" fill-opacity="0" stroke="#000000" stroke-width="1" stroke-opacity="0"></use></g></g></g></g></svg>
