<svg version="1.2" xmlns="http://www.w3.org/2000/svg" viewBox="0 0 500 575" width="500" height="575"><style>.a{fill:#fff}.b{fill:#3f3d56}.c{fill:#3f51b5}.d{fill:#e6e6e6}.e{fill:#ccc}</style><path class="a" d="m284.5 341h-270q-1 0-1.9-0.4-0.9-0.4-1.6-1.1-0.7-0.7-1.1-1.6-0.4-0.9-0.4-1.9v-123q0-1 0.4-1.9 0.4-0.9 1.1-1.6 0.7-0.7 1.6-1.1 0.9-0.4 1.9-0.4h270q1 0 2 0.4 0.9 0.4 1.6 1.1 0.7 0.7 1.1 1.6 0.3 0.9 0.3 1.9v123q0 1-0.3 1.9-0.4 0.9-1.1 1.6-0.7 0.7-1.6 1.1-1 0.4-2 0.4z"/><path fill-rule="evenodd" class="b" d="m284.5 341h-270q-1 0-1.9-0.4-0.9-0.4-1.6-1.1-0.7-0.7-1.1-1.6-0.4-0.9-0.4-1.9v-123q0-1 0.4-1.9 0.4-0.9 1.1-1.6 0.7-0.7 1.6-1.1 0.9-0.4 1.9-0.4h270q1 0 2 0.4 0.9 0.4 1.6 1.1 0.7 0.7 1.1 1.6 0.3 0.9 0.3 1.9v123q0 1-0.3 1.9-0.4 0.9-1.1 1.6-0.7 0.7-1.6 1.1-1 0.4-2 0.4zm-270-131q-0.6 0-1.1 0.2-0.6 0.3-1 0.7-0.4 0.4-0.6 1-0.3 0.5-0.3 1.1v123q0 0.6 0.3 1.1 0.2 0.6 0.6 1 0.4 0.4 1 0.6 0.5 0.3 1.1 0.3h270q0.6 0 1.2-0.3 0.5-0.2 1-0.6 0.4-0.4 0.6-1 0.2-0.5 0.2-1.1v-123q0-0.6-0.2-1.1-0.2-0.6-0.6-1-0.5-0.4-1-0.7-0.6-0.2-1.2-0.2z"/><path class="c" d="m49.5 267.5c-11.6 0-21-9.4-21-21 0-11.6 9.4-21 21-21 11.7 0 21 9.4 21 21 0 11.6-9.3 21-21 21z"/><path class="d" d="m98 232.5c-0.9 0-1.8 0.4-2.4 1-0.7 0.7-1.1 1.6-1.1 2.5 0 0.9 0.4 1.8 1.1 2.5 0.6 0.6 1.5 1 2.4 1h165c1 0 1.9-0.4 2.5-1 0.7-0.7 1-1.6 1-2.5 0-0.9-0.3-1.8-1-2.5-0.6-0.6-1.5-1-2.5-1z"/><path class="d" d="m98 253.5c-0.9 0-1.8 0.4-2.4 1-0.7 0.7-1.1 1.6-1.1 2.5 0 0.9 0.4 1.8 1.1 2.5 0.6 0.6 1.5 1 2.4 1h71c1 0 1.9-0.4 2.5-1 0.7-0.7 1-1.6 1-2.5 0-0.9-0.3-1.8-1-2.5-0.6-0.6-1.5-1-2.5-1z"/><path class="d" d="m33.4 287.1c-2.6 0-4.8 1.5-4.8 3.5 0 1.9 2.2 3.5 4.8 3.5h227.7c2.6 0 4.8-1.6 4.8-3.5 0-2-2.2-3.5-4.8-3.5z"/><path class="d" d="m33.4 308.1c-2.6 0-4.8 1.5-4.8 3.5 0 1.9 2.2 3.5 4.8 3.5h227.7c2.6 0 4.8-1.6 4.8-3.5 0-2-2.2-3.5-4.8-3.5z"/><path class="a" d="m486.5 178h-270q-1 0-1.9-0.4-0.9-0.4-1.6-1.1-0.7-0.7-1.1-1.6-0.4-0.9-0.4-1.9v-123q0-1 0.4-1.9 0.4-0.9 1.1-1.6 0.7-0.7 1.6-1.1 0.9-0.4 1.9-0.4h270q1 0 2 0.4 0.9 0.4 1.6 1.1 0.7 0.7 1.1 1.6 0.3 0.9 0.3 1.9v123q0 1-0.3 1.9-0.4 0.9-1.1 1.6-0.7 0.7-1.6 1.1-1 0.4-2 0.4z"/><path fill-rule="evenodd" class="b" d="m486.5 178h-270q-1 0-1.9-0.4-0.9-0.4-1.6-1.1-0.7-0.7-1.1-1.6-0.4-0.9-0.4-1.9v-123q0-1 0.4-1.9 0.4-0.9 1.1-1.6 0.7-0.7 1.6-1.1 0.9-0.4 1.9-0.4h270q1 0 2 0.4 0.9 0.4 1.6 1.1 0.7 0.7 1.1 1.6 0.3 0.9 0.3 1.9v123q0 1-0.3 1.9-0.4 0.9-1.1 1.6-0.7 0.7-1.6 1.1-1 0.4-2 0.4zm-270-131q-0.6 0-1.1 0.2-0.6 0.3-1 0.7-0.4 0.4-0.6 1-0.3 0.5-0.3 1.1v123q0 0.6 0.3 1.1 0.2 0.6 0.6 1 0.4 0.4 1 0.6 0.5 0.3 1.1 0.3h270q0.6 0 1.2-0.3 0.5-0.2 1-0.6 0.4-0.4 0.6-1 0.2-0.5 0.2-1.1v-123q0-0.6-0.2-1.1-0.2-0.6-0.6-1-0.5-0.4-1-0.7-0.6-0.2-1.2-0.2z"/><path class="c" d="m251.5 104.5c-11.6 0-21-9.4-21-21 0-11.6 9.4-21 21-21 11.7 0 21 9.4 21 21 0 11.6-9.3 21-21 21z"/><path class="d" d="m300 69.5c-0.9 0-1.8 0.4-2.4 1-0.7 0.7-1.1 1.6-1.1 2.5 0 0.9 0.4 1.8 1.1 2.5 0.6 0.6 1.5 1 2.4 1h165c1 0 1.9-0.4 2.5-1 0.7-0.7 1-1.6 1-2.5 0-0.9-0.3-1.8-1-2.5-0.6-0.6-1.5-1-2.5-1z"/><path class="d" d="m300 90.5c-0.9 0-1.8 0.4-2.4 1-0.7 0.7-1.1 1.6-1.1 2.5 0 0.9 0.4 1.8 1.1 2.5 0.6 0.6 1.5 1 2.4 1h71c1 0 1.9-0.4 2.5-1 0.7-0.7 1-1.6 1-2.5 0-0.9-0.3-1.8-1-2.5-0.6-0.6-1.5-1-2.5-1z"/><path class="d" d="m235.4 124.1c-2.6 0-4.8 1.5-4.8 3.5 0 1.9 2.2 3.5 4.8 3.5h227.7c2.6 0 4.8-1.6 4.8-3.5 0-2-2.2-3.5-4.8-3.5z"/><path class="d" d="m235.4 145.1c-2.6 0-4.8 1.5-4.8 3.5 0 1.9 2.2 3.5 4.8 3.5h227.7c2.6 0 4.8-1.6 4.8-3.5 0-2-2.2-3.5-4.8-3.5z"/><path class="a" d="m486.5 504h-270q-1 0-1.9-0.4-0.9-0.4-1.6-1.1-0.7-0.7-1.1-1.6-0.4-0.9-0.4-1.9v-123q0-1 0.4-1.9 0.4-0.9 1.1-1.6 0.7-0.7 1.6-1.1 0.9-0.4 1.9-0.4h270q1 0 2 0.4 0.9 0.4 1.6 1.1 0.7 0.7 1.1 1.6 0.3 0.9 0.3 1.9v123q0 1-0.3 1.9-0.4 0.9-1.1 1.6-0.7 0.7-1.6 1.1-1 0.4-2 0.4z"/><path fill-rule="evenodd" class="b" d="m486.5 504h-270q-1 0-1.9-0.4-0.9-0.4-1.6-1.1-0.7-0.7-1.1-1.6-0.4-0.9-0.4-1.9v-123q0-1 0.4-1.9 0.4-0.9 1.1-1.6 0.7-0.7 1.6-1.1 0.9-0.4 1.9-0.4h270q1 0 2 0.4 0.9 0.4 1.6 1.1 0.7 0.7 1.1 1.6 0.3 0.9 0.3 1.9v123q0 1-0.3 1.9-0.4 0.9-1.1 1.6-0.7 0.7-1.6 1.1-1 0.4-2 0.4zm-270-131q-0.6 0-1.1 0.2-0.6 0.3-1 0.7-0.4 0.4-0.6 1-0.3 0.5-0.3 1.1v123q0 0.6 0.3 1.1 0.2 0.6 0.6 1 0.4 0.4 1 0.6 0.5 0.3 1.1 0.3h270q0.6 0 1.2-0.3 0.5-0.2 1-0.6 0.4-0.4 0.6-1 0.2-0.5 0.2-1.1v-123q0-0.6-0.2-1.1-0.2-0.6-0.6-1-0.5-0.4-1-0.7-0.6-0.2-1.2-0.2z"/><path class="c" d="m251.5 430.5c-11.6 0-21-9.4-21-21 0-11.6 9.4-21 21-21 11.7 0 21 9.4 21 21 0 11.6-9.3 21-21 21z"/><path class="d" d="m300 395.5c-0.9 0-1.8 0.4-2.4 1-0.7 0.7-1.1 1.6-1.1 2.5 0 0.9 0.4 1.8 1.1 2.5 0.6 0.6 1.5 1 2.4 1h165c1 0 1.9-0.4 2.5-1 0.7-0.7 1-1.6 1-2.5 0-0.9-0.3-1.8-1-2.5-0.6-0.6-1.5-1-2.5-1z"/><path class="d" d="m300 416.5c-0.9 0-1.8 0.4-2.4 1-0.7 0.7-1.1 1.6-1.1 2.5 0 0.9 0.4 1.8 1.1 2.5 0.6 0.6 1.5 1 2.4 1h71c1 0 1.9-0.4 2.5-1 0.7-0.7 1-1.6 1-2.5 0-0.9-0.3-1.8-1-2.5-0.6-0.6-1.5-1-2.5-1z"/><path class="d" d="m235.4 450.1c-2.6 0-4.8 1.5-4.8 3.5 0 1.9 2.2 3.5 4.8 3.5h227.7c2.6 0 4.8-1.6 4.8-3.5 0-2-2.2-3.5-4.8-3.5z"/><path class="d" d="m235.4 471.1c-2.6 0-4.8 1.5-4.8 3.5 0 1.9 2.2 3.5 4.8 3.5h227.7c2.6 0 4.8-1.6 4.8-3.5 0-2-2.2-3.5-4.8-3.5z"/><path class="e" d="m63 619.2h-381q-0.4 0-0.7-0.3-0.3-0.3-0.3-0.7 0-0.4 0.3-0.7 0.3-0.3 0.7-0.3h381q0.4 0 0.7 0.3 0.3 0.3 0.3 0.7 0 0.4-0.3 0.7-0.3 0.3-0.7 0.3z"/></svg>